<svg xmlns="http://www.w3.org/2000/svg" width="769.875" height="115.75" viewBox="0 0 769.875 115.75"><g fill="#27AAE1"><path d="M29.008 86.489c-4.047 0-7.821-.765-11.322-2.294-3.503-1.528-6.563-3.601-9.176-6.216-2.616-2.613-4.688-5.673-6.216-9.176-1.531-3.501-2.294-7.275-2.294-11.322v-46.62h7.844v46.62c0 2.96.541 5.749 1.628 8.362 1.084 2.616 2.59 4.884 4.514 6.808 1.924 1.924 4.167 3.429 6.734 4.514 2.564 1.087 5.328 1.628 8.288 1.628s5.721-.541 8.288-1.628c2.565-1.085 4.81-2.59 6.734-4.514 1.924-1.924 3.452-4.192 4.588-6.808 1.133-2.613 1.702-5.402 1.702-8.362v-46.62h7.696v46.62c0 2.96.566 5.749 1.702 8.362 1.133 2.616 2.664 4.884 4.588 6.808s4.167 3.429 6.734 4.514c2.564 1.087 5.328 1.628 8.288 1.628s5.721-.541 8.288-1.628c2.564-1.085 4.81-2.59 6.734-4.514s3.453-4.192 4.588-6.808c1.133-2.613 1.702-5.402 1.702-8.362v-46.62h7.696v46.62c0 4.047-.765 7.821-2.294 11.322-1.531 3.503-3.603 6.563-6.216 9.176-2.616 2.615-5.698 4.688-9.25 6.216-3.552 1.529-7.303 2.294-11.248 2.294-5.328 0-10.212-1.309-14.652-3.922s-7.944-6.142-10.508-10.582c-2.567 4.44-6.045 7.969-10.434 10.582-4.391 2.614-9.301 3.922-14.726 3.922zM119.836 10.729h5.14v8.402h-5.14v-8.402zm0 24.71h5.14v49.422h-5.14v-49.422zM133.773 10.729h5.14v62.271c0 2.175.756 4.02 2.273 5.535 1.515 1.517 3.36 2.273 5.535 2.273v5.14c-1.779 0-3.459-.331-5.041-.989-1.582-.658-2.95-1.581-4.102-2.768-1.154-1.186-2.076-2.57-2.768-4.151s-1.038-3.262-1.038-5.041v-62.27zM152.256 10.729h5.14v62.271c0 2.175.756 4.02 2.273 5.535 1.515 1.517 3.36 2.273 5.535 2.273v5.14c-1.779 0-3.459-.331-5.041-.989-1.582-.658-2.95-1.581-4.102-2.768-1.154-1.186-2.076-2.57-2.768-4.151s-1.038-3.262-1.038-5.041v-62.27zM171.234 10.729h5.14v8.402h-5.14v-8.402zm0 24.71h5.14v49.422h-5.14v-49.422zM209.189 34.154c3.559 0 6.919.677 10.082 2.026 3.163 1.352 5.914 3.197 8.253 5.535 2.338 2.34 4.184 5.091 5.536 8.253 1.35 3.163 2.026 6.524 2.026 10.083v24.711h-5.239v-9.192c-2.307 3.163-5.255 5.668-8.846 7.512-3.592 1.844-7.529 2.768-11.812 2.768-3.558 0-6.903-.676-10.033-2.026-3.13-1.35-5.866-3.195-8.204-5.535-2.34-2.338-4.185-5.073-5.535-8.204-1.351-3.129-2.026-6.474-2.026-10.032 0-3.559.675-6.919 2.026-10.083 1.35-3.163 3.195-5.914 5.535-8.253 2.338-2.338 5.074-4.184 8.204-5.535 3.13-1.351 6.475-2.028 10.033-2.028zm0 5.239c-2.834 0-5.503.544-8.006 1.631-2.505 1.087-4.695 2.555-6.573 4.399-1.878 1.845-3.36 4.037-4.448 6.573-1.087 2.538-1.631 5.224-1.631 8.056 0 2.834.543 5.502 1.631 8.006 1.087 2.505 2.57 4.695 4.448 6.573 1.878 1.878 4.068 3.361 6.573 4.448 2.503 1.087 5.172 1.631 8.006 1.631 2.833 0 5.519-.544 8.056-1.631 2.536-1.087 4.728-2.57 6.573-4.448 1.844-1.878 3.312-4.068 4.398-6.573 1.087-2.504 1.631-5.172 1.631-8.006 0-2.833-.543-5.519-1.631-8.056-1.087-2.536-2.554-4.728-4.398-6.573-1.846-1.844-4.037-3.312-6.573-4.399-2.537-1.087-5.223-1.631-8.056-1.631zM268.495 34.253c3.559 0 6.902.676 10.033 2.026 3.129 1.351 5.864 3.197 8.204 5.535 2.338 2.34 4.184 5.09 5.535 8.253 1.35 3.163 2.026 6.523 2.026 10.082v24.711h-5.14v-24.71c0-2.833-.544-5.518-1.631-8.056-1.087-2.536-2.554-4.728-4.398-6.573-1.846-1.844-4.037-3.311-6.573-4.398-2.537-1.087-5.223-1.631-8.056-1.631-2.834 0-5.503.543-8.006 1.631-2.505 1.087-4.695 2.554-6.573 4.398-1.878 1.846-3.36 4.037-4.448 6.573-1.087 2.538-1.631 5.223-1.631 8.056v24.711h-5.14v-24.711c0-3.559.675-6.919 2.026-10.082 1.35-3.163 3.196-5.914 5.535-8.253 2.338-2.338 5.074-4.184 8.204-5.535 3.13-1.35 6.475-2.027 10.033-2.027zM309.651 19.542c0-2.706.526-5.235 1.579-7.591 1.052-2.354 2.455-4.435 4.209-6.239 1.752-1.804 3.833-3.206 6.238-4.209 2.405-1 4.961-1.503 7.667-1.503 2.706 0 5.261.502 7.667 1.503 2.405 1.003 4.484 2.405 6.238 4.209 1.752 1.804 3.157 3.885 4.209 6.239 1.052 2.356 1.579 4.885 1.579 7.591h-7.967c0-3.206-1.153-5.961-3.458-8.268-2.307-2.304-5.062-3.457-8.268-3.457-3.208 0-5.964 1.153-8.268 3.457-2.307 2.307-3.458 5.062-3.458 8.268v46.751h28.261v7.967h-28.261v41.49h-7.967v-96.208zM382.212 86.146c-3.559 0-6.919-.677-10.082-2.026-3.163-1.35-5.915-3.195-8.253-5.535-2.34-2.338-4.186-5.074-5.535-8.204-1.352-3.129-2.026-6.475-2.026-10.033 0-3.559.675-6.919 2.026-10.082 1.35-3.163 3.195-5.914 5.535-8.253 2.338-2.338 5.09-4.184 8.253-5.536 3.163-1.35 6.523-2.026 10.082-2.026s6.902.676 10.032 2.026c3.13 1.352 5.864 3.197 8.204 5.536 2.339 2.34 4.185 5.09 5.535 8.253s2.026 6.523 2.026 10.082v1.285c0 .396-.033.825-.099 1.285h-46.259c.329 2.57 1.087 4.942 2.273 7.117 1.186 2.175 2.684 4.086 4.498 5.733 1.812 1.648 3.904 2.933 6.276 3.855 2.373.924 4.876 1.384 7.512 1.384 1.911 0 3.722-.361 5.437-1.087 1.713-.724 3.228-1.745 4.547-3.064l3.657 3.657c-1.715 1.714-3.741 3.081-6.079 4.102-2.338 1.02-4.858 1.531-7.56 1.531zm20.461-28.368c-.331-2.57-1.088-4.942-2.273-7.117-1.187-2.174-2.686-4.085-4.498-5.733-1.812-1.646-3.889-2.931-6.227-3.854-2.34-.922-4.828-1.384-7.463-1.384-2.636 0-5.14.462-7.512 1.384-2.372.923-4.465 2.208-6.276 3.854-1.813 1.648-3.312 3.559-4.498 5.733-1.186 2.175-1.944 4.547-2.273 7.117h41.02zM422.145 84.861h-5.14v-24.711c0-3.559.675-6.919 2.026-10.082 1.35-3.163 3.195-5.914 5.535-8.253 2.339-2.338 5.074-4.184 8.204-5.535 3.129-1.35 6.475-2.026 10.033-2.026v5.239c-2.834 0-5.503.543-8.007 1.631-2.505 1.087-4.695 2.554-6.573 4.398-1.878 1.846-3.36 4.037-4.447 6.573-1.088 2.538-1.632 5.223-1.632 8.056v24.71zM472.951 34.253c3.558 0 6.901.676 10.032 2.026 3.129 1.351 5.864 3.197 8.204 5.535 2.338 2.34 4.184 5.09 5.535 8.253 1.35 3.163 2.026 6.523 2.026 10.082v24.711h-5.14v-24.71c0-2.833-.544-5.518-1.631-8.056-1.088-2.536-2.555-4.728-4.398-6.573-1.846-1.844-4.037-3.311-6.573-4.398-2.538-1.087-5.224-1.631-8.056-1.631-2.834 0-5.503.543-8.007 1.631-2.505 1.087-4.695 2.554-6.573 4.398-1.878 1.846-3.36 4.037-4.447 6.573-1.088 2.538-1.632 5.223-1.632 8.056v24.711h-5.14v-24.711c0-3.559.675-6.919 2.026-10.082 1.35-3.163 3.195-5.914 5.535-8.253 2.339-2.338 5.073-4.184 8.204-5.535 3.13-1.35 6.476-2.027 10.035-2.027zM531.663 34.154c3.559 0 6.919.677 10.082 2.026 3.163 1.352 5.914 3.197 8.254 5.535 2.338 2.34 4.184 5.091 5.535 8.253 1.35 3.163 2.026 6.524 2.026 10.083v24.711h-5.239v-9.192c-2.308 3.163-5.256 5.668-8.847 7.512-3.592 1.844-7.528 2.768-11.812 2.768-3.559 0-6.903-.676-10.032-2.026-3.131-1.35-5.866-3.195-8.204-5.535-2.34-2.338-4.186-5.073-5.535-8.204-1.352-3.129-2.026-6.474-2.026-10.032 0-3.559.675-6.919 2.026-10.083 1.35-3.163 3.195-5.914 5.535-8.253 2.338-2.338 5.073-4.184 8.204-5.535 3.129-1.351 6.474-2.028 10.033-2.028zm0 5.239c-2.834 0-5.503.544-8.006 1.631-2.506 1.087-4.695 2.555-6.573 4.399-1.878 1.845-3.361 4.037-4.448 6.573-1.087 2.538-1.631 5.224-1.631 8.056 0 2.834.544 5.502 1.631 8.006 1.087 2.505 2.57 4.695 4.448 6.573s4.067 3.361 6.573 4.448c2.503 1.087 5.172 1.631 8.006 1.631 2.833 0 5.519-.544 8.056-1.631 2.536-1.087 4.728-2.57 6.573-4.448 1.844-1.878 3.312-4.068 4.398-6.573 1.088-2.504 1.631-5.172 1.631-8.006 0-2.833-.543-5.519-1.631-8.056-1.087-2.536-2.555-4.728-4.398-6.573-1.846-1.844-4.037-3.312-6.573-4.399-2.538-1.087-5.223-1.631-8.056-1.631zM590.969 34.253c3.558 0 6.901.676 10.032 2.026 3.129 1.351 5.864 3.197 8.204 5.535 2.338 2.34 4.184 5.09 5.535 8.253 1.35 3.163 2.026 6.523 2.026 10.082v24.711h-5.14v-24.71c0-2.833-.544-5.518-1.631-8.056-1.088-2.536-2.555-4.728-4.398-6.573-1.846-1.844-4.037-3.311-6.573-4.398-2.538-1.087-5.224-1.631-8.056-1.631-2.834 0-5.503.543-8.007 1.631-2.505 1.087-4.695 2.554-6.573 4.398-1.878 1.846-3.36 4.037-4.447 6.573-1.088 2.538-1.632 5.223-1.632 8.056v24.711h-5.14v-24.711c0-3.559.675-6.919 2.026-10.082 1.35-3.163 3.195-5.914 5.535-8.253 2.339-2.338 5.073-4.184 8.204-5.535 3.131-1.35 6.477-2.027 10.035-2.027zM648.594 34.154c4.282 0 8.204.939 11.762 2.817 3.559 1.878 6.524 4.398 8.896 7.562v-33.904h5.14v49.422c0 3.558-.677 6.903-2.026 10.032-1.352 3.131-3.197 5.866-5.535 8.204-2.34 2.34-5.075 4.186-8.204 5.535-3.131 1.35-6.475 2.026-10.032 2.026-3.559 0-6.904-.676-10.033-2.026-3.13-1.35-5.865-3.195-8.204-5.535-2.34-2.338-4.186-5.073-5.535-8.204-1.352-3.129-2.026-6.474-2.026-10.032 0-3.559.675-6.919 2.026-10.083 1.35-3.163 3.195-5.914 5.535-8.253 2.339-2.338 5.074-4.184 8.204-5.535 3.128-1.349 6.474-2.026 10.032-2.026zm0 5.239c-2.834 0-5.503.544-8.007 1.631-2.505 1.087-4.695 2.555-6.573 4.399-1.878 1.845-3.36 4.037-4.447 6.573-1.088 2.538-1.631 5.224-1.631 8.056 0 2.834.543 5.502 1.631 8.006 1.087 2.505 2.569 4.695 4.447 6.573s4.068 3.361 6.573 4.448c2.504 1.087 5.173 1.631 8.007 1.631 2.832 0 5.501-.544 8.006-1.631 2.504-1.087 4.695-2.57 6.573-4.448s3.36-4.068 4.448-6.573c1.087-2.504 1.631-5.172 1.631-8.006 0-2.833-.544-5.519-1.631-8.056-1.088-2.536-2.57-4.728-4.448-6.573-1.878-1.844-4.069-3.312-6.573-4.399-2.505-1.087-5.174-1.631-8.006-1.631zM705.131 86.146c-3.559 0-6.919-.677-10.082-2.026-3.163-1.35-5.915-3.195-8.254-5.535-2.34-2.338-4.185-5.074-5.535-8.204-1.351-3.129-2.026-6.475-2.026-10.033 0-3.559.676-6.919 2.026-10.082s3.195-5.914 5.535-8.253c2.339-2.338 5.091-4.184 8.254-5.536 3.163-1.35 6.523-2.026 10.082-2.026s6.902.676 10.032 2.026c3.13 1.352 5.864 3.197 8.204 5.536 2.339 2.34 4.185 5.09 5.535 8.253s2.026 6.523 2.026 10.082v1.285c0 .396-.033.825-.099 1.285h-46.259c.329 2.57 1.087 4.942 2.273 7.117 1.187 2.175 2.685 4.086 4.497 5.733 1.812 1.648 3.904 2.933 6.277 3.855 2.372.924 4.875 1.384 7.512 1.384 1.91 0 3.722-.361 5.437-1.087 1.713-.724 3.228-1.745 4.547-3.064l3.657 3.657c-1.715 1.714-3.741 3.081-6.079 4.102-2.338 1.02-4.858 1.531-7.56 1.531zm20.461-28.368c-.331-2.57-1.088-4.942-2.273-7.117-1.187-2.174-2.686-4.085-4.498-5.733-1.812-1.646-3.889-2.931-6.227-3.854-2.34-.922-4.828-1.384-7.463-1.384-2.637 0-5.14.462-7.512 1.384-2.373.923-4.466 2.208-6.277 3.854-1.812 1.648-3.311 3.559-4.497 5.733-1.187 2.175-1.944 4.547-2.273 7.117h41.02zM749.611 62.127c-1.714 0-3.345-.312-4.893-.939-1.549-.625-2.9-1.482-4.053-2.57-1.153-1.087-2.075-2.372-2.768-3.855-.691-1.482-1.071-3.08-1.137-4.794-.133-.922-.133-1.91 0-2.965.065-1.712.445-3.311 1.137-4.793.692-1.483 1.614-2.768 2.768-3.855 1.152-1.087 2.504-1.943 4.053-2.57 1.548-.625 3.179-.939 4.893-.939h18.583v5.14h-18.583c-2.043 0-3.805.692-5.288 2.076-1.482 1.384-2.29 3.098-2.421 5.14-.133.857-.133 1.714 0 2.57.131 2.043.938 3.756 2.421 5.14 1.483 1.384 3.245 2.076 5.288 2.076h7.414c1.713 0 3.344.313 4.893.939 1.548.627 2.898 1.5 4.053 2.62 1.151 1.121 2.075 2.421 2.768 3.904.691 1.482 1.07 3.081 1.137 4.794v2.9650000000000003c0 1.779-.347 3.427-1.038 4.942-.692 1.517-1.631 2.851-2.817 4.003-1.186 1.154-2.554 2.06-4.102 2.718-1.549.659-3.213.988-4.992.988h-19.076v-5.14h19.076c1.911 0 3.591-.609 5.041-1.829 1.449-1.219 2.339-2.783 2.669-4.695 0-.198.016-.411.05-.643.032-.23.049-.445.049-.643v-2.076c-.066-2.108-.856-3.919-2.372-5.436-1.517-1.515-3.328-2.273-5.437-2.273h-7.316z"/></g></svg>